<svg xmlns="http://www.w3.org/2000/svg" viewBox="0 0 24 24">
<path d="M8.5 15V14.5H8H6C5.72614 14.5 5.5 14.2739 5.5 14V10C5.5 9.72614 5.72614 9.5 6 9.5H8H8.5V9V7C8.5 5.53159 9.06797 4.14997 10.112 3.11511L10.1135 3.11355C11.1504 2.07669 12.5335 1.5 14 1.5H17C17.2739 1.5 17.5 1.72614 17.5 2V6C17.5 6.27386 17.2739 6.5 17 6.5H14H13.5V7V9V9.5H14H17C17.1586 9.5 17.3037 9.57122 17.398 9.69035C17.4919 9.80906 17.5254 9.9668 17.4869 10.1112L17.4868 10.1112L17.4849 10.1187L16.4849 14.1187L16.4843 14.1213C16.4295 14.3454 16.2317 14.5 16 14.5H14H13.5V15V22C13.5 22.2739 13.2739 22.5 13 22.5H9C8.72614 22.5 8.5 22.2739 8.5 22V15ZM9.5 21V21.5H10H12H12.5V21V14C12.5 13.7261 12.7261 13.5 13 13.5H15.22H15.6104L15.7051 13.1213L16.2051 11.1213L16.3604 10.5H15.72H13C12.7261 10.5 12.5 10.2739 12.5 10V7C12.5 6.60279 12.6572 6.21991 12.9435 5.93355C13.2177 5.65944 13.6096 5.5 14 5.5H16H16.5V5V3V2.5H16H14C12.7956 2.5 11.6702 2.97386 10.8188 3.81411L10.8188 3.81408L10.8141 3.8188C9.97386 4.67025 9.5 5.7956 9.5 7V10C9.5 10.2739 9.27386 10.5 9 10.5H7H6.5V11V13V13.5H7H9C9.27386 13.5 9.5 13.7261 9.5 14V21Z" fill="currentColor" stroke="currentColor"/>
</svg>
