<svg xmlns="http://www.w3.org/2000/svg" viewBox="0 0 24 24">
<path d="M17 22.5H7C3.96614 22.5 1.5 20.0339 1.5 17V7C1.5 3.96614 3.96614 1.5 7 1.5H17C20.0339 1.5 22.5 3.96614 22.5 7V17C22.5 20.0339 20.0339 22.5 17 22.5ZM7 2.5C4.51386 2.5 2.5 4.51386 2.5 7V17C2.5 19.4861 4.51386 21.5 7 21.5H17C19.4861 21.5 21.5 19.4861 21.5 17V7C21.5 4.51386 19.4861 2.5 17 2.5H7Z" fill="currentColor" stroke="currentColor"/>
<path d="M14.0667 15.9828C13.5212 16.2555 12.9318 16.4194 12.3397 16.46H12.0503C11.8054 16.46 11.5617 16.4419 11.3287 16.4062C10.3912 16.2525 9.538 15.8206 8.86384 15.1464C8.18841 14.471 7.75715 13.6269 7.60386 12.6801C7.45103 11.7361 7.60325 10.7921 8.0275 9.94358C8.4499 9.09878 9.12377 8.41526 9.97141 7.9734C10.8153 7.53352 11.7586 7.37954 12.7076 7.51471C13.6618 7.65917 14.5531 8.10994 15.2267 8.78354C15.8995 9.45636 16.351 10.3574 16.4956 11.303C16.6307 12.2519 16.4767 13.1951 16.0369 14.0389C15.5942 14.8883 14.9202 15.5605 14.0686 15.9818L14.0667 15.9828ZM8.91629 10.3801L8.91628 10.3801L8.91465 10.3833C8.57449 11.0519 8.47074 11.7893 8.58647 12.5184C8.70268 13.2505 9.04087 13.9186 9.56873 14.4356C10.0932 14.9592 10.7587 15.2973 11.4913 15.4137C12.2163 15.5305 12.9607 15.413 13.6207 15.0888L13.6208 15.0888L13.627 15.0857C14.2877 14.7495 14.8162 14.2346 15.1559 13.5668C15.49 12.9101 15.6213 12.1851 15.5047 11.4455C15.3988 10.7102 15.0495 10.0113 14.5119 9.48452C13.9758 8.94926 13.2992 8.61187 12.5575 8.49598L12.5575 8.49586L12.5464 8.49437C12.3753 8.47157 12.2033 8.46002 12.0403 8.46002C11.484 8.46002 10.9333 8.58755 10.4274 8.85752C9.77353 9.19693 9.25146 9.73283 8.91629 10.3801Z" fill="currentColor" stroke="currentColor"/>
<path d="M17.5098 7C17.2359 7 17.0098 6.77386 17.0098 6.5C17.0098 6.22287 17.2292 6 17.5098 6C17.7836 6 18.0098 6.22614 18.0098 6.5C18.0098 6.77386 17.7836 7 17.5098 7Z" fill="currentColor" stroke="currentColor"/>
</svg>
